<svg xmlns="http://www.w3.org/2000/svg" width="64" height="64" viewBox="0 0 64 64" fill="none">
  <defs>
    <linearGradient id="bg" x1="0" y1="0" x2="0" y2="1">
      <stop offset="0" stop-color="#FFB957"/>
      <stop offset="1" stop-color="#FF9415"/>
    </linearGradient>
  </defs>
  <rect width="64" height="64" rx="16" fill="url(#bg)"/>
  <g fill="#FFFFFF">
    <ellipse cx="21" cy="24" rx="5" ry="6.5"/>
    <ellipse cx="32" cy="20" rx="5" ry="6.5"/>
    <ellipse cx="43" cy="24" rx="5" ry="6.5"/>
    <ellipse cx="13.5" cy="36" rx="4" ry="5.2"/>
    <ellipse cx="50.5" cy="36" rx="4" ry="5.2"/>
    <path d="M23 40c-4 0-8 4.4-8 10 0 5.2 4.4 7.8 9 7.8 2.6 0 4.6-.9 8-.9s5.4.9 8 .9c4.6 0 9-2.6 9-7.8 0-5.6-4-10-8-10-2.6 0-4 1.4-4 1.4S29.6 40 27 40c-1.4 0-2.6.4-4 .4z"/>
  </g>
</svg>
